<?xml version="1.0" encoding="utf-8"?>
<!-- Generator: Adobe Illustrator 24.1.2, SVG Export Plug-In . SVG Version: 6.00 Build 0)  -->
<svg version="1.1" id="Layer_1" xmlns="http://www.w3.org/2000/svg" xmlns:xlink="http://www.w3.org/1999/xlink" x="0px" y="0px"
	 viewBox="0 0 1000 1000" style="enable-background:new 0 0 1000 1000;" xml:space="preserve">
<style type="text/css">
	.st0{fill:#D7B767;}
	.st1{fill:none;stroke:#000000;stroke-width:47;stroke-miterlimit:10;}
	.st2{fill:#EFD789;}
	.st3{fill:#F4EEBD;}
	.st4{fill:#C29C58;}
	.st5{fill:#A08044;}
</style>
<path class="st0" d="M964.98,580.43c-0.27-1.96-0.43-3.94-0.52-5.93c-1.69,0.21-3.46-0.38-4.56-1.85c-2.35,0.05-4.75-1.57-5.17-4.81
	c-0.13-0.99-0.23-1.98-0.32-2.98c-1.49-0.4-2.73-1.48-3.05-3.4c-0.35-2.11-0.71-4.23-1.06-6.34c-2.89,2.04-7.91,0.76-8.01-3.88
	c-0.01-0.52-0.04-1.04-0.07-1.56c-0.08-0.08-0.17-0.15-0.25-0.24c-1.71-1.98-3.34-4.19-4.58-6.56c-1.29-0.77-2.21-2.13-2.21-4.08
	v-4.08c0-1.26,0.38-2.27,0.99-3.03c-0.04-1.33,0.05-2.65,0.3-3.98c-0.4-0.33-0.73-0.73-0.96-1.22c-2.43-0.05-4.85-1.82-5.07-4.87
	c-1.27-17.6-1.73-35.62,2.55-52.88c0.12-0.49,0.31-0.91,0.53-1.3c-0.25-1.4-0.48-2.81-0.69-4.22c-0.72-0.79-1.19-1.86-1.2-3.23
	c-0.03-2.96-0.2-5.92-0.35-8.88c-0.31-0.46-0.54-1-0.65-1.64c-0.32-1.82-0.59-3.64-0.84-5.47c-2.25-0.29-4.42-1.88-4.68-4.75
	c-0.09-1.02-0.17-2.03-0.25-3.03c-0.25-2.75-0.59-5.47-1.02-8.17c-1.6-0.33-2.97-1.43-3.3-3.47c-0.62-3.81-0.62-7.38-0.2-11.13
	c-0.01-0.21-0.01-0.42-0.03-0.63c-0.05-0.51-0.1-0.87-0.14-1.12c-1.42-1.41-2.09-3.53-1.39-5.28c-2.27-7.63-3.63-15.52-3.75-23.47
	c-0.01-0.75,0.13-1.39,0.36-1.96c-0.42-0.81-0.57-1.78-0.35-2.87c-0.7-3.48-0.99-7.19-0.6-10.57c0.15-1.33,0.84-2.47,1.78-3.31
	v-2.02c0-1.03,0.26-1.9,0.69-2.6c0.29-2.75,0.69-5.48,1.27-8.21c0.52-2.45,2.75-3.65,4.95-3.56c0.08-1.38,0.19-2.76,0.38-4.14
	c0.33-2.34,2.27-3.46,4.33-3.53c0.11-1.19,0.24-2.38,0.41-3.58c0.33-2.31,2.6-3.57,4.84-3.6c0.32-1,0.91-1.8,1.63-2.38
	c-0.22-1.23-0.39-2.46-0.5-3.69c-2.61-4.56-4.81-9.32-6.56-14.34c-0.23-0.67-0.28-1.32-0.2-1.94c-0.91-1.97-1.81-3.95-2.71-5.92
	c-2.62-4.49-5.37-8.91-7.95-13.43c-5.58-7.26-10.65-14.91-15.52-22.67c-5.45-6.35-10.71-12.82-14.01-20.62
	c-0.21-0.5-0.34-1.01-0.4-1.51c-0.15-0.25-0.31-0.51-0.47-0.76c-1.68-2.41-3.37-4.81-5.06-7.2c-0.27-0.38-0.46-0.77-0.59-1.16
	c-3.36-4.39-6.75-8.76-9.58-13.52c-1.09,0.26-2.29,0.1-3.45-0.71c-12.52-8.67-21.59-21.54-32.33-32.19
	c-10.59-10.5-21.96-21.05-29.31-34.19c-0.18-0.32-0.31-0.64-0.41-0.96c-1.92-1.82-4.01-3.42-6.17-4.93
	c0.51,1.08,1.04,2.15,1.59,3.21c2.95,5.71-5.64,10.75-8.63,5.05c-1.54-2.93-2.99-5.91-4.33-8.93c-0.76,4.46-8.83,5.03-9.8,0.03
	c0-0.02-0.01-0.03-0.01-0.05c-0.37-0.04-0.73-0.11-1.08-0.22c-1.57,1.09-3.54,1.48-5.06,0.53c-0.44,0.09-0.89,0.18-1.33,0.27
	c-0.94,0.19-1.79,0.13-2.55-0.1c-1.76,0.12-3.52,0.19-5.3,0.23c-0.13,0.06-0.26,0.12-0.4,0.17c-0.63,4.16-5.79,5.88-8.43,3.32
	c-0.54,0.04-1.09,0-1.62-0.14c-1.57,1.38-3.9,1.75-5.72,0.71c-1.67,1.4-4.28,1.64-6.19,0.4c-0.2,0.08-0.4,0.16-0.59,0.24
	c-5.32,2.24-10-4.63-6.42-7.79c-2.05,0.4-4.27-0.23-5.16-2.3c-0.71-1.66-1.36-3.35-2.01-5.05c-2.52,0.89-5.53,0.05-6.2-3.26
	c-0.24-1.15-0.44-2.33-0.62-3.51c-0.26-0.13-0.53-0.26-0.79-0.39c-0.16-0.04-0.32-0.12-0.48-0.18c-2.47,1.18-5.82,0.29-6.99-3.02
	c-0.06-0.16-0.11-0.32-0.16-0.48c-0.38-0.2-0.75-0.42-1.1-0.68c-0.54-0.4-0.96-0.85-1.29-1.32c-0.01,0-0.02,0-0.03,0.01
	c-2.03,2.34-6.15,2.99-8.18-0.48c-0.15-0.26-0.31-0.51-0.48-0.76c-0.7-0.45-1.26-1.12-1.58-2.01c-1.22-1.33-2.65-2.51-4.16-3.58
	c-1.87-0.85-3.74-1.69-5.61-2.53c-0.77-0.34-1.34-0.84-1.74-1.41c-2.43-0.83-4.83-1.75-7.21-2.74c1.14,3.4-1.4,7.38-5.85,6.43
	c-16.28-3.46-30.76-12.05-43.12-22.99c-2.06-1.13-4.1-2.31-6.08-3.59c-1.15-0.74-1.82-1.73-2.14-2.78
	c-0.51-0.34-0.98-0.78-1.39-1.33c-0.69-0.4-1.32-0.98-1.82-1.83c-1.94-3.3-3.71-6.69-5.28-10.16c-2.23-3.92-4.14-8.05-5.89-12.37
	c-0.41-1.01-0.47-1.92-0.28-2.72c-0.17-0.91-0.03-1.74,0.31-2.45c-0.01-0.06-0.03-0.11-0.04-0.17c-0.21-0.99-0.14-1.91,0.14-2.73
	c-0.98-3.21-1.63-6.53-2.02-9.88c-32.08-7.06-65.38-10.79-99.54-10.79c-35.05,0-69.2,3.93-102.06,11.35
	c1.62,2.58,0.27,6.11-2.19,7.37c-0.02,0.05-0.04,0.09-0.06,0.14c-0.61,1.7-1.29,3.36-2.06,4.99c-0.33,1.33-0.76,2.64-1.23,4
	c-0.47,1.36-1.33,2.27-2.34,2.82c-0.36,0.52-0.78,0.95-1.25,1.29c-0.16,0.21-0.3,0.43-0.47,0.64c-0.63,0.82-1.36,1.38-2.14,1.74
	c-0.46,0.91-0.93,1.81-1.42,2.7c-0.85,1.54-2.1,2.28-3.4,2.44c-0.41,1.35-0.85,2.67-1.31,3.97c-0.7,10.83-6.77,22.07-14.73,29.26
	c-2.26,2.04-5.69,1.52-7.45-0.44c-2.01,0.66-4.24-0.35-5.47-2.06c-13.34,6.75-26.86,13.15-40.2,19.91
	c-4.66,3.06-9.62,5.58-14.89,7.34c-1.66,1.22-3.32,2.43-4.99,3.59c-1.36,0.95-2.7,1.08-3.85,0.69c-0.49,0.36-0.98,0.74-1.48,1.09
	c-1.43,1-2.81,1.1-3.97,0.64c-1.26,1.12-2.95,1.35-4.47,0.94c-6.67,3.63-13.12,7.6-18.99,12.45c-0.32,0.26-0.65,0.46-0.98,0.64
	c1.21,2.51,0.29,6.07-3,7.17c-5.33,1.78-10.67,3.56-16,5.33c-3.76,1.25-6.65-2.41-6.17-5.71c-6.04-0.69-12-1.94-17.92-3.4
	c-0.06,0.1-0.12,0.2-0.18,0.3c-2.78,4.31-8.85,1.97-9.41-1.9c-0.44,0.05-0.88,0.04-1.31-0.01c-2.69,1.79-5.28,3.8-7.93,5.5
	c-4.75,3.05-9.62,5.24-15.21,5.91c-2.97,2.81-5.97,5.58-9.24,8.05c-2.37,1.79-4.85,3.31-7.42,4.59
	c-39.87,41.32-72.45,89.97-95.6,143.8c4.14,9.2,8.23,18.42,11.73,27.87c1.25,0.84,2.19,2.19,2.32,3.96
	c0.07,1.05,0.13,2.09,0.18,3.14c0.49,1.47,0.97,2.94,1.42,4.42c0.15,0.48,0.21,0.94,0.2,1.39c1.03,2.26,1.97,4.55,2.76,6.91
	c0.31,0.91,0.3,1.78,0.08,2.58c0.17,0.52,0.34,1.05,0.52,1.57c0.88,2.65-0.43,4.62-2.34,5.54c-1.64,8.47-3.61,16.85-6.06,25.09
	c-1.23,6.43-2.73,12.8-4.5,19.07c-0.43,2.69-0.87,5.38-1.32,8.07c-0.09,0.56-0.28,1.05-0.53,1.47c-1.71,9.69-3.71,19.32-6.16,28.86
	c-0.08,0.71-0.17,1.41-0.24,2.11c-0.21,1.99-1.29,3.37-2.68,4.13c-0.15,0.61-0.3,1.22-0.45,1.83c0.7,1.03,1.12,2.3,1.08,3.59
	c0.98-0.58,2.24-0.72,3.71-0.14c10.39,4.11-5.16,21.37-8.54,25.61c-2.49,3.13-5.38,6.51-8.6,9.64c-2.93,3.85-6.27,7.38-9.95,10.52
	c-3.46,5.08-7.37,9.82-11.59,14.13c-0.02,0.02-0.04,0.03-0.05,0.05c0.69,17.87,2.34,35.48,4.9,52.79
	c10.14,42.14,22.11,85.1,42.07,123.67c1.3,0.16,2.61,0.87,3.64,2.32c7.49,10.54,14.42,21.45,20.61,32.79
	c0.07,0.09,0.15,0.17,0.22,0.25c1.63-0.97,3.76-0.95,5.65,0.91c0.8,0.78,1.61,1.56,2.44,2.34c1.32-0.14,2.76,0.2,4.08,1.22
	c1.13,0.87,2.22,1.79,3.29,2.72c0.38-0.62,0.9-1.13,1.53-1.48c0.76-1.28,2.13-2.17,4.09-2.12c8.71,0.23,15.92,3.68,21.76,8.92
	c3.25,2.06,6.31,4.37,9.2,6.88c0.59,0.3,1.19,0.59,1.78,0.89c1.02,0.51,1.69,1.19,2.09,1.96c1.2,0.73,1.87,1.72,2.1,2.79
	c2.63,2.7,5.11,5.54,7.49,8.47c0.77,0.95,1.14,1.97,1.22,2.96c2.33,2.25,4.6,4.55,6.82,6.83c7.96,8.18,15.43,16.86,23.29,25.16
	c3.82,3.75,7.59,7.53,11.33,11.27c1.16,1.16,1.58,2.46,1.48,3.7c2.03,4.49,3.07,9.42,4.16,14.33c0.09,0.12,0.19,0.23,0.28,0.35
	c1.37,1.73,1.56,3.58,1.02,5.11c0.71,2.67,1.55,5.28,2.72,7.76c1.6,3.39-0.56,6.49-3.26,7.31c0.02,0.06,0.04,0.11,0.06,0.17
	c3.3,4.04,6.49,8.47,9.37,13.18c1.27-0.1,2.59,0.31,3.72,1.45c8.31,8.36,15.8,17.29,20.37,27.75c0.33,0.19,0.65,0.42,0.96,0.7
	c6.28,5.65,13.09,10.76,20.19,15.41c4.52,2.32,8.84,5.1,13.09,7.88c1.67,0.92,3.35,1.82,5.03,2.69
	c13.3,6.91,28.27,13.26,43.49,13.44c3.91,0.05,5.44,3.74,4.61,6.63c6.93,2.45,13.85,4.93,20.82,7.24c8.33,2.77,16.8,5.04,25.28,7.3
	c8.59,1.37,17.11,2.96,25.67,4.06c0.79-0.66,1.81-1.03,3.03-0.93c6.35,0.53,12.7,1.09,19.04,1.68c1.33-0.34,2.66-0.73,3.97-1.16
	c-0.83-2.08-0.56-4.7,1.72-6.36c4.41-3.22,9.33-5.75,13.67-9.06c1-0.9,2.03-1.77,3.1-2.61c0.01-0.01,0.01-0.01,0.02-0.01
	c0.03-0.03,0.06-0.06,0.09-0.1c-0.01-2.21,1.91-4.02,4.16-4.5c0.57-0.6,1.14-1.19,1.72-1.79c0.25-1.16,0.86-2.25,1.85-2.99
	c0.54-1.91,2.08-3.61,4.58-3.93c0.3-0.04,0.6-0.06,0.91-0.1c0.3-0.27,0.59-0.54,0.89-0.81c0.36-0.32,0.75-0.56,1.15-0.75
	c1.1-1.86,3.15-3.12,5.49-2.31c0.51,0.18,1.02,0.32,1.53,0.48c2.05-1.15,4.59-0.42,6.17,1.12c17.21-0.14,34.2-3.43,51.42-3.55
	c2.39-0.02,3.89,1.35,4.51,3.08c6.14-0.57,12.29-1.05,18.45-1.22c0.61-0.12,1.23-0.14,1.83-0.04c0.63-0.01,1.25-0.04,1.88-0.04
	c2.16-0.01,3.59,1.11,4.3,2.6c0.84,0.21,1.61,0.61,2.19,1.24c0.35,0.38,0.69,0.76,1.02,1.15c2.11-0.5,4.6,0.22,5.69,2.23
	c1.69,3.1,3.22,6.26,4.62,9.48c1.89-0.33,3.89,0.32,4.86,2.37c0.6,1.27,1.14,2.56,1.66,3.86c1.77-4.28,8.1-4.51,9.51,0.3
	c0.65,2.2,1.14,4.46,1.59,6.74c1.03-0.99,2.53-1.43,3.98-1.33c0.06-0.22,0.13-0.45,0.19-0.67c1.07-3.65,4.57-4.26,7.07-2.9
	c1.29-0.73,2.82-0.79,4.15-0.3c2.37-1.42,5.72-1.03,7,1.2c0.05-0.13,0.1-0.25,0.15-0.38c1.18-2.92,3.84-3.87,6.09-3.31
	c1.06-2.2,3.17-3.12,5.16-3.01c19.58-7.28,37.98-18.11,58.12-23.66c2.65-1.24,5.31-2.46,7.96-3.69c0.09-1.01,0.57-2.03,1.59-2.9
	c1.84-1.57,3.89-2.61,6.02-3.46c2.05-1.06,4.13-2.02,6.35-2.65c1.91-4.37,4.27-8.53,5.9-13.02c1.55-4.24,6.52-4.73,9.14-1.19
	c1.49,2.01,4.05,3.22,6.18,4.63c0.23-0.4,0.52-0.74,0.85-1.03c1.4-4.89,3.39-9.63,5.67-14.27c2.33-4.74,9.08-2.07,9.32,2.52
	c0.04,0.83,0.13,1.65,0.24,2.46c0.86-1.81,1.68-3.66,2.38-5.57c0.56-1.54,1.88-2.72,3.38-3.28v-9.61c0-5.83,8.09-6.56,9.82-1.33
	c0.8,2.43,1.58,4.86,2.35,7.3c1.24-0.78,2.86-0.96,4.32-0.57c0.23-0.14,0.48-0.26,0.73-0.35c0.12-2.33,0.27-4.62,0.56-6.82
	c0.59-4.51,5.89-5.82,8.54-3.87c0.61-1.66,2.04-2.76,3.62-3.19c0.71-1.87,2.56-2.98,4.47-3.14c-0.24-1.93-0.44-3.86-0.64-5.8
	c-0.26-2.8,1.48-4.36,3.58-4.71c-0.01-1-0.02-2-0.02-3c0-1.19,0.34-2.16,0.89-2.91c0.02-4.96,0.05-9.91,0.29-14.87
	c0.08-1.54,0.65-2.69,1.47-3.49c-0.03-2.39,0.1-4.78,0.31-7.18c0.3-3.3,2.64-4.87,5-4.81c0.1-1.45,0.26-2.86,0.51-4.22
	c0.26-1.36,1.08-2.32,2.13-2.9c0.03-2.59,0.33-5.21,0.84-7.76c0.77-3.88,4.28-4.31,6.9-2.82c0.01-0.2,0.02-0.4,0.03-0.59
	c0.28-4.08,4.3-5.58,7.16-4.44c-0.02-1.5-0.04-2.99-0.05-4.45c-0.01-4.69,4.88-5.89,7.83-3.85c-0.06-1.32-0.12-2.61-0.13-3.85
	c-0.05-6.06,7.59-6.17,9.57-1.49c0.73-1.96,1.65-3.87,3.03-5.23c0.5-0.5,1.07-0.89,1.66-1.17c0.04-0.18,0.08-0.36,0.14-0.54
	c2.9-9.13,8.83-16.49,14.13-24.31c0.78-1.15,1.8-1.83,2.88-2.12c0.48-0.62,0.96-1.25,1.46-1.86c0.67-0.82,1.5-1.27,2.38-1.44
	c1.85-2.97,3.67-5.97,5.73-8.81c0.28-0.39,0.6-0.71,0.93-1c2-2.24,4.97-2.2,6.96-0.88c1.39-2.19,2.93-4.29,4.75-6.24
	c1.94-2.09,5.24-1.61,7.16,0.13c0.62-0.11,1.26-0.12,1.89-0.04c0.34-0.42,0.68-0.85,1.02-1.28c0.88-1.08,1.98-1.55,3.1-1.58
	c1.87-2.69,3.74-5.37,5.79-7.9c1.15-1.42,2.56-1.84,3.9-1.62c1.05-1.06,2.12-2.1,3.21-3.12c2-1.88,4.45-1.73,6.2-0.53
	c5.43-10.24,11.12-20.35,15.63-31.04c1.01-2.39,3.21-3.42,5.28-3.35c3.74-8.73,7.57-17.42,11.13-26.23c0.85-2.1,1.66-4.21,2.47-6.32
	c1.29-3.92,2.67-7.8,4.16-11.65c5.87-17.45,10.3-35.43,13.42-53.56c0.05-0.47,0.1-0.94,0.15-1.41
	C966.38,583.22,965.22,582.14,964.98,580.43z"/>
<path class="st1" d="M257.95,179.69c0,0,72-54.67,133.33-74.67l20-42.67c0,0,110.67-42.67,181.33,0l17.33,49.19
	c0,0,92,17.48,132,61.48l45.33-9.33c0,0,85.33,61.33,130.67,166.67l-22.67,38.67c0,0,26.67,80,22.67,170.67l34.67,44
	c0,0-9.33,82.67-49.33,124l-45.33,20c0,0-33.33,53.33-73.33,86.67l-9.33,52c0,0-86.67,65.33-170,82.67l-34-33.33
	c0,0-56,12-101.33,2.67l-36,38.67c0,0-112,0-197.33-88v-42.67c0,0-60-36-78.67-88l-40-4c0,0-48.26-56-68-202.67l37.33-31.48
	c0,0,0-84.52,28-136.52l-21.33-44c0,0,32-109.33,124-148L257.95,179.69z"/>
<circle class="st2" cx="499.98" cy="506.94" r="395.69"/>
<ellipse class="st3" cx="485.95" cy="500.58" rx="306.67" ry="317.33"/>
<ellipse transform="matrix(0.6847 -0.7288 0.7288 0.6847 -15.0142 598.9243)" class="st3" cx="684.68" cy="316.81" rx="92.54" ry="140.5"/>
<ellipse transform="matrix(0.7071 -0.7071 0.7071 0.7071 -280.7039 706.7003)" class="st3" cx="712.71" cy="692.19" rx="153.62" ry="97.5"/>
<ellipse transform="matrix(0.4458 -0.8951 0.8951 0.4458 -470.4489 756.3301)" class="st3" cx="375.6" cy="758.1" rx="63.19" ry="117.7"/>
<ellipse class="st3" cx="516.73" cy="519.69" rx="317.89" ry="314.22"/>
<path class="st4" d="M523.05,437.56c0,81.37-65.96,147.33-147.33,147.33s-147.33-65.96-147.33-147.33s65.96-147.33,147.33-147.33
	c48.8,0,92.06,23.72,118.87,60.27C512.48,374.88,523.05,404.99,523.05,437.56z"/>
<path class="st4" d="M741.21,272.39c36.26,42.56,49.46,94.67,28.16,117.83c-22.92,24.91-76.39,7.14-117.8-41.46
	s-50.46-104.21-22.22-122.89C655.6,208.52,704.95,229.82,741.21,272.39z"/>
<ellipse transform="matrix(0.7295 -0.6839 0.6839 0.7295 -277.9897 667.0155)" class="st4" cx="704.37" cy="685" rx="131.69" ry="87.59"/>
<ellipse transform="matrix(0.5 -0.866 0.866 0.5 -469.7668 705.0653)" class="st4" cx="375.72" cy="759.36" rx="44" ry="94.67"/>
<path class="st5" d="M368.92,762.21c0,0,28.53,15.78,87.45,15.89c0,0-15.03-32.61-58.65-56.84c0,0-50.53-28.64-85-21.4
	C312.72,699.86,327.44,738.51,368.92,762.21z"/>
<path class="st5" d="M613.14,265.64c0,0,104.22,22.87,143.33,133.2c0,0-41.33,18.07-99.18-43.65
	C657.29,355.2,616.17,313.07,613.14,265.64z"/>
<path class="st5" d="M357.66,422.06c0,0,41.48-74.46,140.44-66.56c0,0,54.37,69.82,3.19,159.16c0,0-53.21,95.49-170.12,63.37
	C331.17,578.03,318.55,486.06,357.66,422.06z"/>
<path class="st5" d="M709.88,690.99c0,0,49.77-47.05,64.59-112.42c0,0-56.15-24.41-130,42.52c0,0-58.77,50.61-52.98,114.47
	C591.49,735.57,650.62,738.4,709.88,690.99z"/>
</svg>
